<?xml version="1.0" encoding="UTF-8" standalone="no"?>
<svg
   width="200"
   height="200"
   version="1.1"
   id="svg32"
   sodipodi:docname="dog-breeds.svg"
   xmlns:inkscape="http://www.inkscape.org/namespaces/inkscape"
   xmlns:sodipodi="http://sodipodi.sourceforge.net/DTD/sodipodi-0.dtd"
   xmlns="http://www.w3.org/2000/svg"
   xmlns:svg="http://www.w3.org/2000/svg">
  <defs
     id="defs36" />
  <sodipodi:namedview
     id="namedview34"
     pagecolor="#ffffff"
     bordercolor="#000000"
     borderopacity="0.25"
     inkscape:showpageshadow="2"
     inkscape:pageopacity="0.0"
     inkscape:pagecheckerboard="0"
     inkscape:deskcolor="#d1d1d1" />
  <!-- Background circle -->
  <circle
     cx="100"
     cy="100"
     r="90"
     stroke="black"
     stroke-width="4"
     fill="none"
     id="circle2" />
  <!-- Adjusted path for top text to lower "BREED" -->
  <path
     id="adjustedTopPath"
     fill="none"
     stroke="none"
     d="M25,110 a70,70 0 0,1 150,0" />
  <!-- Define path for bottom text -->
  <path
     id="bottomPath"
     fill="none"
     stroke="none"
     d="M20,100 a80,80 0 0,0 160,0" />
  <!-- Dog silhouette in the center -->
  <g
     aria-label="DOGS"
     id="text6"
     style="font-weight:bold;font-size:48px;font-family:Arial;text-anchor:middle">
    <path
       d="m 32.792969,70.040626 h 12.679687 q 4.289063,0 6.539063,0.65625 3.023437,0.890625 5.179687,3.164062 2.15625,2.273438 3.28125,5.578125 1.125,3.28125 1.125,8.109375 0,4.242188 -1.054687,7.3125 -1.289063,3.75 -3.679688,6.070312 -1.804687,1.75781 -4.875,2.74219 Q 49.691406,104.4 45.847656,104.4 H 32.792969 Z m 6.9375,5.8125 v 22.757812 h 5.179687 q 2.90625,0 4.195313,-0.328125 1.6875,-0.421875 2.789062,-1.429687 1.125,-1.007813 1.828125,-3.304688 0.703125,-2.320312 0.703125,-6.304687 0,-3.984375 -0.703125,-6.117188 -0.703125,-2.132812 -1.96875,-3.328125 -1.265625,-1.195312 -3.210937,-1.617187 -1.453125,-0.328125 -5.695313,-0.328125 z"
       id="path38" />
    <path
       d="m 66.074219,87.431251 q 0,-5.25 1.570312,-8.8125 1.171875,-2.625 3.1875,-4.710938 2.039063,-2.085937 4.453125,-3.09375 3.210938,-1.359375 7.40625,-1.359375 7.59375,0 12.140625,4.710938 4.570313,4.710937 4.570313,13.101562 0,8.320313 -4.523438,13.031252 -4.523437,4.6875 -12.09375,4.6875 -7.664062,0 -12.1875,-4.66406 -4.523437,-4.687504 -4.523437,-12.890629 z m 7.148437,-0.234375 q 0,5.835937 2.695313,8.859375 2.695312,3 6.84375,3 4.148437,0 6.796875,-2.976563 2.671875,-3 2.671875,-8.976562 0,-5.90625 -2.601563,-8.8125 -2.578125,-2.90625 -6.867187,-2.90625 -4.289063,0 -6.914063,2.953125 -2.625,2.929687 -2.625,8.859375 z"
       id="path40" />
    <path
       d="m 120.80078,91.767188 v -5.789062 h 14.95313 v 13.6875 q -2.17969,2.109374 -6.32813,3.726564 -4.125,1.59375 -8.36719,1.59375 -5.39062,0 -9.39843,-2.25 -4.00782,-2.27344 -6.02344,-6.468752 -2.01563,-4.21875 -2.01563,-9.164062 0,-5.367188 2.25,-9.539063 2.25,-4.171875 6.58594,-6.398437 3.30469,-1.710938 8.22656,-1.710938 6.39844,0 9.98438,2.695313 3.60937,2.671875 4.64062,7.40625 l -6.89062,1.289062 q -0.72656,-2.53125 -2.74219,-3.984375 -1.99219,-1.476562 -4.99219,-1.476562 -4.54687,0 -7.24218,2.882812 -2.67188,2.882813 -2.67188,8.554688 0,6.117187 2.71875,9.1875 2.71875,3.046875 7.125,3.046875 2.17969,0 4.35938,-0.84375 2.20312,-0.867188 3.77343,-2.085938 v -4.359375 z"
       id="path42" />
    <path
       d="m 140.39453,93.220313 6.75,-0.65625 q 0.60938,3.398438 2.46094,4.992188 1.875,1.59375 5.03906,1.59375 3.35156,0 5.03906,-1.40625 1.71094,-1.429688 1.71094,-3.328125 0,-1.21875 -0.72656,-2.0625 -0.70313,-0.867188 -2.48438,-1.5 -1.21875,-0.421875 -5.55468,-1.5 -5.57813,-1.382813 -7.82813,-3.398438 -3.16406,-2.835937 -3.16406,-6.914062 0,-2.625 1.47656,-4.898438 1.5,-2.296875 4.28906,-3.492187 2.8125,-1.195313 6.77344,-1.195313 6.46875,0 9.72656,2.835938 3.28125,2.835937 3.44532,7.570312 l -6.9375,0.304688 q -0.44532,-2.648438 -1.92188,-3.796875 -1.45312,-1.171875 -4.38281,-1.171875 -3.02344,0 -4.73438,1.242187 -1.10156,0.796875 -1.10156,2.132813 0,1.21875 1.03125,2.085937 1.3125,1.101563 6.375,2.296875 5.0625,1.195313 7.47656,2.484375 2.4375,1.265625 3.79688,3.492188 1.38281,2.203125 1.38281,5.460937 0,2.953125 -1.64062,5.53125 -1.64063,2.578122 -4.64063,3.843752 -3,1.24219 -7.47656,1.24219 -6.51563,0 -10.00781,-3 -3.49219,-3.023442 -4.17188,-8.789067 z"
       id="path44" />
  </g>
  <!-- Dog bone outline -->
  <g
     transform="matrix(0.33,0,0,0.33,70,115)"
     id="g22">
    <!-- Left end circles -->
    <path
       id="circle8"
       d="M 52,30 A 22,22 0 0 1 30,52 22,22 0 0 1 8,30 22,22 0 0 1 30,8 22,22 0 0 1 52,30 Z" />
    <path
       id="circle10"
       d="M 52,70 A 22,22 0 0 1 30,92 22,22 0 0 1 8,70 22,22 0 0 1 30,48 22,22 0 0 1 52,70 Z" />
    <!-- Right end circles -->
    <path
       id="circle12"
       d="M 192,30 A 22,22 0 0 1 170,52 22,22 0 0 1 148,30 22,22 0 0 1 170,8 22,22 0 0 1 192,30 Z" />
    <path
       id="circle14"
       d="M 192,70 A 22,22 0 0 1 170,92 22,22 0 0 1 148,70 22,22 0 0 1 170,48 22,22 0 0 1 192,70 Z" />
    <!-- Middle rectangle -->
    <path
       id="rect16"
       d="M 30,25 H 170 V 75 H 30 Z" />
    <!-- Overlap circles to form femur bone ends -->
    <path
       id="circle18"
       d="M 75,50 A 25,25 0 0 1 50,75 25,25 0 0 1 25,50 25,25 0 0 1 50,25 25,25 0 0 1 75,50 Z" />
    <path
       id="circle20"
       d="M 175,50 A 25,25 0 0 1 150,75 25,25 0 0 1 125,50 25,25 0 0 1 150,25 25,25 0 0 1 175,50 Z" />
  </g>
  <!-- Adjusted text along top path -->
  <g
     aria-label="BREED"
     id="text26"
     style="font-size:20px;font-family:Arial">
    <path
       d="m 67.992726,41.95232 -5.184959,-13.3445 5.006463,-1.945244 q 1.529247,-0.594183 2.607772,-0.541781 1.084091,0.03976 1.931866,0.684712 0.853341,0.63231 1.210558,1.551679 0.33246,0.85565 0.161779,1.791548 -0.170681,0.935898 -0.927877,1.764425 1.348589,-0.115392 2.327338,0.489145 0.987851,0.601 1.440562,1.76614 0.364291,0.937575 0.27855,1.903331 -0.08018,0.953117 -0.492979,1.6164 -0.412803,0.663283 -1.207341,1.23392 -0.788972,0.557997 -2.063345,1.05315 z m -1.24037,-8.423402 2.885544,-1.121167 q 1.174243,-0.456248 1.623866,-0.809055 0.595787,-0.461982 0.752209,-1.05708 0.165524,-0.598634 -0.106811,-1.299539 -0.258186,-0.664494 -0.771304,-1.041352 -0.516654,-0.385961 -1.179063,-0.338122 -0.665946,0.03874 -2.104167,0.597552 l -2.667079,1.036285 z m 2.394419,6.162502 3.322471,-1.290935 q 0.85565,-0.33246 1.176793,-0.530577 0.567437,-0.346198 0.878026,-0.760229 0.310589,-0.414031 0.387115,-0.999039 0.07299,-0.594111 -0.174586,-1.231297 -0.290019,-0.746418 -0.884539,-1.144032 -0.598057,-0.406717 -1.36564,-0.35992 -0.762017,0.03416 -2.036389,0.52931 l -3.085802,1.198978 z"
       style="text-anchor:middle"
       id="path54" />
    <path
       d="m 80.63206,37.304209 -2.621959,-14.074261 6.240293,-1.162533 q 1.881688,-0.350549 2.932475,-0.148959 1.048998,0.191989 1.813476,1.042935 0.764479,0.850946 0.980889,2.012601 0.279008,1.49767 -0.499267,2.705558 -0.778274,1.207888 -2.752102,1.863677 0.805409,0.217501 1.253814,0.491577 0.955542,0.596812 1.894432,1.584137 l 3.161732,3.37451 -2.34251,0.436397 -2.407984,-2.581166 q -1.052122,-1.115236 -1.705343,-1.6889 -0.65322,-0.573663 -1.125719,-0.763781 -0.462897,-0.191907 -0.914591,-0.217029 -0.329335,-0.0082 -1.049369,0.125957 l -2.160101,0.402415 1.164322,6.249893 z m 0.397696,-8.209741 4.003388,-0.74581 q 1.27686,-0.237872 1.948604,-0.631222 0.669955,-0.402951 0.937062,-1.04873 0.265318,-0.65538 0.138334,-1.337012 -0.186005,-0.998447 -1.03547,-1.50575 -0.839864,-0.509092 -2.404737,-0.217564 l -4.45461,0.82987 z"
       style="text-anchor:middle"
       id="path56" />
    <path
       d="m 94.912109,35.000034 0,-14.316406 10.351561,0 v 1.689453 l -8.457029,0 v 4.384766 l 7.919919,0 v 1.679687 l -7.919919,0 v 4.873047 l 8.789059,0 v 1.689453 z"
       style="text-anchor:middle"
       id="path58" />
    <path
       d="m 108.26247,35.275729 2.51779,-14.093268 10.19022,1.820503 -0.29712,1.663121 -8.32522,-1.487317 -0.77114,4.316424 7.79648,1.392857 -0.2954,1.653507 -7.79648,-1.392856 -0.85701,4.797095 8.65207,1.54571 -0.29712,1.663121 z"
       style="text-anchor:middle"
       id="path60" />
    <path
       d="m 121.33211,37.851855 5.08591,-13.382563 4.60995,1.751967 q 1.561,0.593241 2.30972,1.097174 1.0496,0.701855 1.59838,1.704393 0.71894,1.297037 0.70848,2.891463 0.002,1.588767 -0.67784,3.377978 -0.57936,1.52448 -1.38291,2.566772 -0.80355,1.042292 -1.65528,1.606602 -0.84826,0.55518 -1.68465,0.749228 -0.82378,0.188389 -1.85076,0.05927 -1.01785,-0.125647 -2.23196,-0.587056 z m 2.37113,-0.906219 2.85726,1.085873 q 1.32365,0.50304 2.16587,0.541046 0.85134,0.04147 1.46864,-0.235836 0.86925,-0.390497 1.61857,-1.317586 0.76192,-0.932749 1.33781,-2.448101 0.79793,-2.099583 0.53087,-3.486067 -0.25446,-1.392142 -1.09464,-2.150223 -0.60796,-0.544459 -2.18721,-1.144638 l -2.81162,-1.068527 z"
       style="text-anchor:middle"
       id="path62" />
  </g>
  <!-- Text along bottom path -->
  <g
     aria-label="facts"
     id="text30"
     style="font-size:20px;font-family:Arial">
    <path
       d="m 80.804832,177.68929 2.038323,-8.77015 -1.512424,-0.35151 0.309507,-1.33169 1.512423,0.35151 0.249816,-1.07487 q 0.236552,-1.01779 0.532241,-1.47042 0.402068,-0.60837 1.115417,-0.87369 0.725072,-0.27262 1.847499,-0.0118 0.722919,0.16802 1.558238,0.54263 l -0.603916,1.43371 q -0.510569,-0.21893 -0.986174,-0.32947 -0.779992,-0.18128 -1.18078,0.0765 -0.400788,0.25776 -0.613021,1.17092 l -0.216655,0.93218 1.969004,0.45763 -0.309507,1.33169 -1.969003,-0.45762 -2.038323,8.77015 z"
       style="text-anchor:middle"
       id="path65" />
    <path
       d="m 92.688214,178.42646 q -1.071613,0.7031 -2.015079,0.93011 -0.933775,0.2282 -1.961005,0.10035 -1.695898,-0.21109 -2.504309,-1.1482 -0.807205,-0.94679 -0.646779,-2.23568 0.09408,-0.75588 0.510462,-1.33388 0.427274,-0.58648 1.026694,-0.89567 0.609112,-0.30798 1.330977,-0.41495 0.530502,-0.0717 1.583103,-0.0687 2.143966,0.011 3.185546,-0.21364 0.05432,-0.35735 0.06638,-0.45426 0.132684,-1.066 -0.30727,-1.5636 -0.595089,-0.67437 -1.913044,-0.83842 -1.230738,-0.15318 -1.876159,0.20932 -0.634524,0.35403 -1.05186,1.41411 l -1.67664,-0.44487 q 0.368882,-1.06612 0.985107,-1.66844 0.617432,-0.61202 1.66991,-0.84514 1.053684,-0.2428 2.381329,-0.0776 1.317955,0.16404 2.103078,0.57668 0.785123,0.41264 1.113653,0.93574 0.329735,0.5134 0.395529,1.24983 0.03173,0.45663 -0.113013,1.61953 l -0.289491,2.32581 q -0.30276,2.4324 -0.276977,3.09495 0.03668,0.65407 0.29259,1.28623 l -1.821879,-0.22677 q -0.203796,-0.57646 -0.190856,-1.31293 z m 0.339534,-3.91381 q -0.997951,0.26943 -2.931131,0.30435 -1.094983,0.0212 -1.564886,0.1595 -0.469903,0.13833 -0.759217,0.48611 -0.288107,0.3381 -0.344799,0.79357 -0.08685,0.69774 0.37856,1.22804 0.475099,0.5315 1.492637,0.65815 1.007848,0.12545 1.847086,-0.21294 0.840445,-0.34807 1.303988,-1.06781 0.354613,-0.55616 0.498152,-1.70937 z"
       style="text-anchor:middle"
       id="path67" />
    <path
       d="m 103.6215,176.17796 1.73003,0.21266 q -0.27084,1.78902 -1.43567,2.81272 -1.15513,1.01387 -2.8543,1.02562 -2.12886,0.0147 -3.437243,-1.36299 -1.298685,-1.38754 -1.316642,-3.98514 -0.01161,-1.67965 0.536308,-2.94323 0.547919,-1.26358 1.676384,-1.8964 1.138163,-0.64265 2.476023,-0.6519 1.68941,-0.0117 2.76955,0.84025 1.08006,0.84217 1.39366,2.4123 l -1.70712,0.27548 q -0.25136,-1.04321 -0.87999,-1.56622 -0.61887,-0.52308 -1.49775,-0.517 -1.328096,0.009 -2.151539,0.97193 -0.82351,0.95298 -0.809266,3.01348 0.01445,2.08979 0.821756,3.0315 0.807311,0.9417 2.096339,0.93279 1.03513,-0.007 1.72409,-0.6467 0.68895,-0.63954 0.86538,-1.95915 z"
       style="text-anchor:middle"
       id="path69" />
    <path
       d="m 110.52892,177.76343 0.4123,1.51837 q -0.72217,0.23178 -1.305,0.29206 -0.95195,0.0985 -1.50764,-0.14842 -0.55569,-0.24687 -0.81963,-0.71046 -0.26494,-0.4733 -0.4277,-2.04694 l -0.61386,-5.93514 -1.28222,0.13262 -0.14065,-1.35993 1.28222,-0.13262 -0.26423,-2.55473 1.63027,-1.22893 0.37273,3.60382 1.7582,-0.18184 0.14066,1.35993 -1.7582,0.18185 0.6239,6.03227 q 0.0774,0.74796 0.18688,0.95263 0.11925,0.20365 0.3363,0.30883 0.22676,0.10418 0.61531,0.064 0.29142,-0.0301 0.76036,-0.14736 z"
       style="text-anchor:middle"
       id="path71" />
    <path
       d="m 111.09801,176.23671 1.64903,-0.61407 q 0.35161,0.99483 1.11321,1.40811 0.77117,0.41132 1.94829,0.17216 1.18669,-0.24111 1.66367,-0.83628 0.47504,-0.60474 0.34282,-1.25551 -0.11861,-0.58378 -0.69388,-0.81567 -0.40076,-0.15774 -1.87951,-0.226 -1.9921,-0.0935 -2.799,-0.28831 -0.79927,-0.20631 -1.30651,-0.74102 -0.49963,-0.54623 -0.65129,-1.29269 -0.13806,-0.67948 0.0515,-1.31591 0.1972,-0.64794 0.65535,-1.13963 0.34166,-0.37834 0.98988,-0.71931 0.65584,-0.35249 1.45015,-0.51388 1.19626,-0.24305 2.16585,-0.0813 0.97916,0.1598 1.53037,0.66564 0.54926,0.49628 0.91223,1.44894 l -1.63767,0.57191 q -0.27428,-0.76142 -0.91879,-1.08886 -0.63494,-0.3294 -1.6398,-0.12523 -1.18669,0.24111 -1.61418,0.73654 -0.4275,0.49543 -0.32055,1.02178 0.068,0.33496 0.33304,0.56014 0.26693,0.23476 0.75367,0.3252 0.27784,0.0432 1.61109,0.13106 1.92705,0.11668 2.70897,0.28666 0.78955,0.15847 1.32162,0.6682 0.53207,0.50974 0.71096,1.39019 0.175,0.86131 -0.17666,1.72997 -0.34403,0.85715 -1.20592,1.47073 -0.86383,0.60401 -2.06009,0.84707 -1.98101,0.4025 -3.19137,-0.20859 -1.20079,-0.61303 -1.8165,-2.17204 z"
       style="text-anchor:middle"
       id="path73" />
  </g>
</svg>
